<svg width="50" height="50" viewBox="0 0 52 51" fill="none" xmlns="http://www.w3.org/2000/svg">
<rect x="0.647339" y="0.330811" width="50.4863" height="50.4863" rx="8.07781" fill="#1E2772"/>
<g clip-path="url(#clip0_0_1)">
<path d="M16.8026 16.4865H34.9777C35.2455 16.4865 35.5023 16.5928 35.6916 16.7822C35.881 16.9716 35.9874 17.2284 35.9874 17.4962V33.6518C35.9874 33.9196 35.881 34.1764 35.6916 34.3658C35.5023 34.5551 35.2455 34.6615 34.9777 34.6615H16.8026C16.5348 34.6615 16.278 34.5551 16.0886 34.3658C15.8992 34.1764 15.7929 33.9196 15.7929 33.6518L15.7929 17.4962C15.7929 17.2284 15.8992 16.9716 16.0886 16.7822C16.278 16.5928 16.5348 16.4865 16.8026 16.4865ZM33.9679 20.7657L25.9628 27.9347L17.8123 20.7435V32.6421H33.9679V20.7657ZM18.3283 18.5059L25.9517 25.2327L33.4651 18.5059H18.3283Z" fill="white"/>
</g>
<defs>
<clipPath id="clip0_0_1">
<rect width="24.2334" height="24.2334" fill="white" transform="translate(13.7737 13.4573)"/>
</clipPath>
</defs>
</svg>
