<svg width="50" height="50" viewBox="0 0 52 51" fill="none" xmlns="http://www.w3.org/2000/svg">
<rect x="0.647339" y="0.330688" width="50.4863" height="50.4863" rx="8.07781" fill="#1E2772"/>
<g clip-path="url(#clip0_0_1)">
<path d="M32.9585 23.5544H33.9682C34.236 23.5544 34.4929 23.6608 34.6822 23.8501C34.8716 24.0395 34.978 24.2963 34.978 24.5641V34.6614C34.978 34.9292 34.8716 35.186 34.6822 35.3753C34.4929 35.5647 34.236 35.6711 33.9682 35.6711H17.8126C17.5448 35.6711 17.288 35.5647 17.0986 35.3753C16.9093 35.186 16.8029 34.9292 16.8029 34.6614V24.5641C16.8029 24.2963 16.9093 24.0395 17.0986 23.8501C17.288 23.6608 17.5448 23.5544 17.8126 23.5544H18.8223V22.5446C18.8223 21.6165 19.0052 20.6973 19.3604 19.8398C19.7156 18.9823 20.2362 18.2031 20.8925 17.5468C21.5489 16.8904 22.328 16.3698 23.1856 16.0146C24.0431 15.6594 24.9622 15.4766 25.8904 15.4766C26.8186 15.4766 27.7377 15.6594 28.5953 16.0146C29.4528 16.3698 30.232 16.8904 30.8883 17.5468C31.5446 18.2031 32.0653 18.9823 32.4205 19.8398C32.7757 20.6973 32.9585 21.6165 32.9585 22.5446V23.5544ZM18.8223 25.5738V33.6516H32.9585V25.5738H18.8223ZM24.8807 27.5933H26.9002V31.6322H24.8807V27.5933ZM30.9391 23.5544V22.5446C30.9391 21.2057 30.4071 19.9215 29.4603 18.9747C28.5135 18.0279 27.2294 17.496 25.8904 17.496C24.5514 17.496 23.2673 18.0279 22.3205 18.9747C21.3737 19.9215 20.8418 21.2057 20.8418 22.5446V23.5544H30.9391Z" fill="white"/>
</g>
<defs>
<clipPath id="clip0_0_1">
<rect width="24.2334" height="24.2334" fill="white" transform="translate(13.7739 13.4572)"/>
</clipPath>
</defs>
</svg>
